# xmcd
#
# Track frame offsets:
#	150
#	14225
#	28780
#	45247
#	57802
#	72052
#	86260
#	100037
#	113317
#	129407
#	142872
#	156532
#	170035
#	183575
#	195775
#	207905
#	221407
#	234310
#	247507
#
# Disc length: 3469 seconds
#
# Revision: 0
# Processed by: cddbd v1.4PL0 Copyright (c) Steve Scherf et al.
# Submitted via: MusicWizard 6.0.1
#
DISCID=ed0d8b13
DTITLE=Various Artist - The Ultimate Anthology Of Blues and Jazz, Volume 2 [CD 1/2)
DYEAR=1900
DGENRE=Blues
TTITLE0=Charley Patton - High Water Everywhere, Part 2
TTITLE1=Charley Patton - A Spoonful Blues
TTITLE2=Tommy Johnson - Canned Heat Blues
TTITLE3=Mississippi John Hurt - Candy Man Blues
TTITLE4=Freeman Stowers - Railroad Blues
TTITLE5=Son House - My Black Mama, Part 1
TTITLE6=Louise Johnson - On The Wall
TTITLE7=Willie Brown - Future Blues
TTITLE8=Mississippi Sheiks - Bootlegger's Blues
TTITLE9=Little Brother Montgomery - Vicksburg Blues
TTITLE10=Skip James - Devil Got My Woman
TTITLE11=Big Bill Broonzy - Big Bill Blues
TTITLE12=Hokum Boys and Jane Lucas - Hip Shakin' Strut
TTITLE13=Robert Johnson - Cross Road Blues
TTITLE14=Bukka White - Parchman Farm Blues
TTITLE15=Tony Hollins - Crawlin' King Snake
TTITLE16=Tommy McClennan - Whiskey Head Man
TTITLE17=Robert Petway - Catfish Blues
TTITLE18=Big Joe Williams - Please Don't Go
EXTD=
EXTT0=
EXTT1=
EXTT2=
EXTT3=
EXTT4=
EXTT5=
EXTT6=
EXTT7=
EXTT8=
EXTT9=
EXTT10=
EXTT11=
EXTT12=
EXTT13=
EXTT14=
EXTT15=
EXTT16=
EXTT17=
EXTT18=
PLAYORDER=
